<mxfile host="app.diagrams.net" modified="2023-07-13T07:23:01.383Z" agent="Mozilla/5.0 (Macintosh; Intel Mac OS X 10_15_7) AppleWebKit/537.36 (KHTML, like Gecko) Chrome/114.0.0.0 Safari/537.36" etag="g4H2elt9wTwQLN1OMa6c" version="21.1.1" type="github">
  <diagram name="第 1 页" id="xaL02ySa6q5JVfjO3hHx">
    <mxGraphModel dx="1853" dy="661" grid="1" gridSize="10" guides="1" tooltips="1" connect="1" arrows="1" fold="1" page="1" pageScale="1" pageWidth="827" pageHeight="1169" math="0" shadow="0">
      <root>
        <mxCell id="0" />
        <mxCell id="1" parent="0" />
        <mxCell id="M0KOB1P4pgldupKeuKC6-2" value="餐品" style="rounded=1;whiteSpace=wrap;html=1;" vertex="1" parent="1">
          <mxGeometry x="140" y="160" width="120" height="60" as="geometry" />
        </mxCell>
        <mxCell id="M0KOB1P4pgldupKeuKC6-3" value="" style="rounded=1;whiteSpace=wrap;html=1;" vertex="1" parent="1">
          <mxGeometry x="400" y="80" width="200" height="140" as="geometry" />
        </mxCell>
        <mxCell id="M0KOB1P4pgldupKeuKC6-4" value="小料" style="rounded=1;whiteSpace=wrap;html=1;" vertex="1" parent="1">
          <mxGeometry x="640" y="110" width="120" height="60" as="geometry" />
        </mxCell>
        <mxCell id="M0KOB1P4pgldupKeuKC6-5" value="单选" style="rounded=0;whiteSpace=wrap;html=1;" vertex="1" parent="1">
          <mxGeometry x="420" y="110" width="70" height="30" as="geometry" />
        </mxCell>
        <mxCell id="M0KOB1P4pgldupKeuKC6-6" value="多选" style="rounded=0;whiteSpace=wrap;html=1;" vertex="1" parent="1">
          <mxGeometry x="500" y="110" width="70" height="30" as="geometry" />
        </mxCell>
        <mxCell id="M0KOB1P4pgldupKeuKC6-7" value="小料" style="rounded=0;whiteSpace=wrap;html=1;" vertex="1" parent="1">
          <mxGeometry x="420" y="155" width="70" height="30" as="geometry" />
        </mxCell>
        <mxCell id="M0KOB1P4pgldupKeuKC6-8" value="加料" style="rounded=0;whiteSpace=wrap;html=1;" vertex="1" parent="1">
          <mxGeometry x="500" y="155" width="70" height="30" as="geometry" />
        </mxCell>
        <mxCell id="M0KOB1P4pgldupKeuKC6-9" value="规格" style="text;html=1;strokeColor=none;fillColor=none;align=center;verticalAlign=middle;whiteSpace=wrap;rounded=0;" vertex="1" parent="1">
          <mxGeometry x="470" y="50" width="60" height="30" as="geometry" />
        </mxCell>
        <mxCell id="M0KOB1P4pgldupKeuKC6-10" value="菜单" style="rounded=1;whiteSpace=wrap;html=1;" vertex="1" parent="1">
          <mxGeometry x="140" y="60" width="120" height="60" as="geometry" />
        </mxCell>
        <mxCell id="M0KOB1P4pgldupKeuKC6-11" value="section" style="rounded=1;whiteSpace=wrap;html=1;" vertex="1" parent="1">
          <mxGeometry y="160" width="120" height="60" as="geometry" />
        </mxCell>
        <mxCell id="M0KOB1P4pgldupKeuKC6-12" value="MenuSection" style="rounded=1;whiteSpace=wrap;html=1;" vertex="1" parent="1">
          <mxGeometry x="-10" y="60" width="120" height="60" as="geometry" />
        </mxCell>
        <mxCell id="M0KOB1P4pgldupKeuKC6-13" value="MealPlan" style="rounded=1;whiteSpace=wrap;html=1;" vertex="1" parent="1">
          <mxGeometry x="10" y="330" width="120" height="60" as="geometry" />
        </mxCell>
        <mxCell id="M0KOB1P4pgldupKeuKC6-14" value="MealPlanRule" style="rounded=1;whiteSpace=wrap;html=1;" vertex="1" parent="1">
          <mxGeometry x="260" y="330" width="120" height="60" as="geometry" />
        </mxCell>
        <mxCell id="M0KOB1P4pgldupKeuKC6-15" value="餐厅" style="rounded=1;whiteSpace=wrap;html=1;" vertex="1" parent="1">
          <mxGeometry x="10" y="430" width="120" height="60" as="geometry" />
        </mxCell>
        <mxCell id="M0KOB1P4pgldupKeuKC6-16" value="食堂" style="rounded=1;whiteSpace=wrap;html=1;" vertex="1" parent="1">
          <mxGeometry x="260" y="430" width="120" height="60" as="geometry" />
        </mxCell>
        <mxCell id="M0KOB1P4pgldupKeuKC6-17" value="MenuCalendar" style="rounded=1;whiteSpace=wrap;html=1;" vertex="1" parent="1">
          <mxGeometry x="470" y="330" width="120" height="60" as="geometry" />
        </mxCell>
        <mxCell id="M0KOB1P4pgldupKeuKC6-18" value="排餐餐品视图" style="rounded=1;whiteSpace=wrap;html=1;" vertex="1" parent="1">
          <mxGeometry x="650" y="330" width="120" height="60" as="geometry" />
        </mxCell>
      </root>
    </mxGraphModel>
  </diagram>
</mxfile>
